<?xml version="1.0" encoding="UTF-8"?>
<svg width="428px" height="428px" viewBox="0 0 428 428" version="1.1" xmlns="http://www.w3.org/2000/svg" xmlns:xlink="http://www.w3.org/1999/xlink">
    <!-- Generator: Sketch Beta 42 (36644) - http://www.bohemiancoding.com/sketch -->
    <title>decoded logo</title>
    <desc>Created with Sketch Beta.</desc>
    <defs></defs>
    <g id="Page-1" stroke="none" stroke-width="1" fill="none" fill-rule="evenodd">
        <g id="decoded-logo" fill-rule="nonzero">
            <g id="decoded_round_RGB">
                <g id="Layer_1" transform="translate(0.000000, -0.000000)">
                    <ellipse id="Oval" fill="#FEF800" cx="213.910647" cy="213.910647" rx="213.910647" ry="213.910647"></ellipse>
                    <g id="Group" transform="translate(68.801670, 175.131524)" fill="#000100">
                        <path d="M0.804175365,0.982881002 L19.5682672,0.982881002 C31.4521921,0.982881002 37.2601253,7.59498956 37.2601253,19.65762 L37.2601253,57.9006263 C37.2601253,69.9632568 31.4521921,76.5753653 19.5682672,76.5753653 L0.804175365,76.5753653 L0.804175365,0.982881002 Z M12.6881002,11.794572 L12.6881002,65.7636743 L19.3895616,65.7636743 C23.14238,65.7636743 25.4655532,63.7979123 25.4655532,58.4367432 L25.4655532,19.1215031 C25.4655532,13.760334 23.2317328,11.794572 19.3895616,11.794572 L12.6881002,11.794572 Z" id="Shape"></path>
                        <polygon id="Shape" points="56.7390397 32.8818372 73.0906054 32.8818372 73.0906054 43.6935282 56.7390397 43.6935282 56.7390397 65.8530271 77.2901879 65.8530271 77.2901879 76.6647182 44.8551148 76.6647182 44.8551148 1.07223382 77.2901879 1.07223382 77.2901879 11.8839248 56.7390397 11.8839248"></polygon>
                        <path d="M119.107307,48.4292276 L119.107307,58.4367432 C119.107307,70.4993737 113.031315,77.4688935 101.415449,77.4688935 C89.7102296,77.4688935 83.7235908,70.5887265 83.7235908,58.4367432 L83.7235908,19.1215031 C83.7235908,7.05887265 89.7995825,0.0893528184 101.415449,0.0893528184 C113.120668,0.0893528184 119.107307,6.96951983 119.107307,19.1215031 L119.107307,26.4484342 L107.848852,26.4484342 L107.848852,18.3173278 C107.848852,12.9561587 105.436326,10.9010438 101.683507,10.9010438 C97.9306889,10.9010438 95.5181628,12.9561587 95.5181628,18.3173278 L95.5181628,59.1515658 C95.5181628,64.5127349 97.9306889,66.4784969 101.683507,66.4784969 C105.436326,66.4784969 107.848852,64.5127349 107.848852,59.1515658 L107.848852,48.3398747 L119.107307,48.3398747 L119.107307,48.4292276 Z" id="Shape"></path>
                        <path d="M125.362004,19.1215031 C125.362004,7.05887265 131.706054,0.0893528184 143.411273,0.0893528184 C155.116493,0.0893528184 161.460543,6.96951983 161.460543,19.1215031 L161.460543,58.4367432 C161.460543,70.4993737 155.116493,77.4688935 143.411273,77.4688935 C131.706054,77.4688935 125.362004,70.5887265 125.362004,58.4367432 L125.362004,19.1215031 Z M137.245929,59.2409186 C137.245929,64.6020877 139.658455,66.6572025 143.411273,66.6572025 C147.164092,66.6572025 149.576618,64.6020877 149.576618,59.2409186 L149.576618,18.4066806 C149.576618,13.0455115 147.164092,10.9903967 143.411273,10.9903967 C139.658455,10.9903967 137.245929,13.0455115 137.245929,18.4066806 L137.245929,59.2409186 Z" id="Shape"></path>
                        <path d="M169.055532,0.982881002 L187.819624,0.982881002 C199.703549,0.982881002 205.511482,7.59498956 205.511482,19.65762 L205.511482,57.9006263 C205.511482,69.9632568 199.703549,76.5753653 187.819624,76.5753653 L169.055532,76.5753653 L169.055532,0.982881002 Z M180.939457,11.794572 L180.939457,65.7636743 L187.640919,65.7636743 C191.393737,65.7636743 193.71691,63.7979123 193.71691,58.4367432 L193.71691,19.1215031 C193.71691,13.760334 191.48309,11.794572 187.640919,11.794572 L180.939457,11.794572 Z" id="Shape"></path>
                        <polygon id="Shape" points="225.079749 32.8818372 241.431315 32.8818372 241.431315 43.6935282 225.079749 43.6935282 225.079749 65.8530271 245.630898 65.8530271 245.630898 76.6647182 213.195825 76.6647182 213.195825 1.07223382 245.630898 1.07223382 245.630898 11.8839248 225.079749 11.8839248"></polygon>
                        <path d="M252.868476,0.982881002 L271.632568,0.982881002 C283.516493,0.982881002 289.324426,7.59498956 289.324426,19.65762 L289.324426,57.9006263 C289.324426,69.9632568 283.516493,76.5753653 271.632568,76.5753653 L252.868476,76.5753653 L252.868476,0.982881002 Z M264.752401,11.794572 L264.752401,65.7636743 L271.453862,65.7636743 C275.206681,65.7636743 277.529854,63.7979123 277.529854,58.4367432 L277.529854,19.1215031 C277.529854,13.760334 275.296033,11.794572 271.453862,11.794572 L264.752401,11.794572 Z" id="Shape"></path>
                    </g>
                </g>
            </g>
        </g>
    </g>
</svg>